<svg data-v-fde0c5aa="" xmlns="http://www.w3.org/2000/svg" viewBox="0 0 300 300" class="iconAbove"><!----><defs data-v-fde0c5aa=""><!----></defs><rect data-v-fde0c5aa="" fill="#0B173D" x="0" y="0" width="300px" height="300px" class="logo-background-square"></rect><defs data-v-fde0c5aa=""><!----></defs><g data-v-fde0c5aa="" id="c1650380-25c1-4f0b-ba82-cf3c934efd5b" fill="#D1A103" transform="matrix(2.984731912612915,0,0,2.984731912612915,17.910687686541806,166.14843362032678)"><path d="M6.10 9.79L9.02 15.37L9.03 15.40C9.04 15.43 9.06 15.47 9.06 15.51C9.06 15.68 8.93 15.81 8.78 15.81L6.93 15.81C6.83 15.81 6.75 15.75 6.71 15.67L6.69 15.64L4.87 12.15L3.07 15.64L3.05 15.67C3.01 15.75 2.91 15.81 2.81 15.81L0.98 15.81C0.83 15.81 0.70 15.68 0.70 15.51C0.70 15.47 0.71 15.43 0.73 15.40L0.74 15.37L3.64 9.79L0.76 4.24L0.71 4.14C0.70 4.12 0.70 4.09 0.70 4.06C0.70 4.02 0.71 3.98 0.73 3.93L0.74 3.91C0.78 3.82 0.87 3.77 0.98 3.77L2.81 3.77C2.93 3.77 3.01 3.84 3.07 3.92L4.87 7.41L6.69 3.92C6.73 3.84 6.83 3.77 6.93 3.77L8.78 3.77C8.88 3.77 8.96 3.82 9.02 3.91L9.03 3.93C9.04 3.98 9.06 4.02 9.06 4.06C9.06 4.09 9.04 4.12 9.04 4.14L8.99 4.24ZM25.03 11.16C25.03 11.00 24.91 10.89 24.75 10.89L23.83 10.89L22.12 4.05L22.11 3.98C22.06 3.88 21.97 3.81 21.85 3.81L20.02 3.81C19.91 3.81 19.81 3.88 19.77 3.98L19.75 4.06L16.91 15.41C16.91 15.43 16.91 15.44 16.90 15.44L16.90 15.50C16.90 15.67 17.02 15.79 17.16 15.79L18.86 15.79C18.97 15.79 19.08 15.71 19.11 15.60C19.11 15.58 19.12 15.57 19.12 15.57L19.74 13.06L22.13 13.06L22.75 15.55L22.76 15.60C22.81 15.71 22.90 15.79 23.02 15.79L24.71 15.79C24.86 15.79 24.98 15.67 24.98 15.50L24.98 15.47L24.96 15.40L24.37 13.06L24.75 13.06C24.91 13.06 25.03 12.95 25.03 12.80ZM20.29 10.89L20.94 8.30L21.59 10.89ZM34.92 15.89L28.90 9.32L28.90 15.53C28.90 15.68 28.78 15.81 28.63 15.81L26.99 15.81C26.84 15.81 26.71 15.68 26.71 15.53L26.71 3.70L32.73 10.26L32.73 4.06C32.73 3.91 32.86 3.78 33.00 3.78L34.65 3.78C34.79 3.78 34.92 3.91 34.92 4.06ZM44.03 11.16C44.03 11.00 43.90 10.89 43.75 10.89L42.83 10.89L41.12 4.05L41.10 3.98C41.06 3.88 40.96 3.81 40.85 3.81L39.02 3.81C38.91 3.81 38.81 3.88 38.77 3.98L38.75 4.06L35.91 15.41C35.91 15.43 35.91 15.44 35.90 15.44L35.90 15.50C35.90 15.67 36.02 15.79 36.16 15.79L37.86 15.79C37.97 15.79 38.08 15.71 38.11 15.60C38.11 15.58 38.12 15.57 38.12 15.57L38.74 13.06L41.13 13.06L41.75 15.55L41.76 15.60C41.80 15.71 41.90 15.79 42.01 15.79L43.71 15.79C43.86 15.79 43.97 15.67 43.97 15.50L43.97 15.47L43.96 15.40L43.37 13.06L43.75 13.06C43.90 13.06 44.03 12.95 44.03 12.80ZM39.28 10.89L39.94 8.30L40.59 10.89ZM52.42 15.54C52.42 15.69 52.26 15.81 52.07 15.81L46.13 15.81C45.98 15.81 45.85 15.69 45.85 15.54L45.85 4.12C45.85 3.93 45.98 3.78 46.13 3.78L47.77 3.78C47.92 3.78 48.03 3.93 48.03 4.12L48.03 13.62L52.07 13.62C52.26 13.62 52.42 13.75 52.42 13.90ZM61.75 4.06C61.75 4.10 61.75 4.13 61.74 4.17L61.71 4.21L58.67 10.05L58.21 10.96L55.78 15.62L55.76 15.67C55.76 15.68 55.76 15.68 55.75 15.68C55.71 15.75 55.62 15.81 55.52 15.81L53.68 15.81C53.52 15.81 53.41 15.68 53.41 15.51C53.41 15.48 53.41 15.46 53.42 15.43L53.47 15.34L56.29 9.91L53.42 4.20C53.41 4.14 53.40 4.10 53.40 4.06C53.40 4.03 53.40 3.99 53.41 3.96L53.45 3.88C53.51 3.81 53.58 3.77 53.68 3.77L55.50 3.77C55.59 3.77 55.69 3.82 55.73 3.91L57.54 7.52L59.39 3.95C59.40 3.93 59.40 3.92 59.40 3.92L59.43 3.88C59.47 3.81 59.56 3.77 59.64 3.77L61.49 3.77C61.64 3.77 61.75 3.91 61.75 4.06ZM70.24 12.28C70.24 12.38 70.22 13.22 69.69 14.07C69.20 14.88 68.19 15.83 66.14 15.83C64.51 15.83 63.24 15.15 62.55 13.93C62.23 13.34 62.10 12.77 62.06 12.40C62.06 12.38 62.05 12.35 62.05 12.32C62.05 12.18 62.16 12.05 62.30 12.04L64.02 12.04C64.13 12.05 64.22 12.12 64.25 12.24L64.25 12.25C64.25 12.26 64.26 12.28 64.26 12.29C64.29 12.46 64.36 12.70 64.50 12.91C64.79 13.40 65.34 13.65 66.14 13.65C66.99 13.65 67.54 13.41 67.83 12.94C68.03 12.61 68.05 12.26 68.05 12.26C68.05 11.87 67.96 11.41 67.23 11.12C66.70 10.89 66.14 10.88 66.14 10.88C66.04 10.88 65.14 10.86 64.22 10.50C62.80 9.93 62.03 8.81 62.03 7.34C62.03 7.20 62.06 5.89 63.08 4.87C63.81 4.13 64.85 3.75 66.14 3.75C66.96 3.75 68.15 3.93 69.06 4.86C69.94 5.75 70.17 6.89 70.22 7.45L70.22 7.48C70.22 7.64 70.11 7.77 69.96 7.77L68.26 7.77C68.15 7.76 68.05 7.66 68.03 7.55L68.03 7.50C67.98 7.31 67.91 7.03 67.77 6.75C67.58 6.40 67.20 5.94 66.14 5.94C65.45 5.94 64.95 6.09 64.62 6.41C64.25 6.79 64.22 7.34 64.22 7.34C64.22 7.73 64.32 8.18 65.04 8.47C65.58 8.68 66.14 8.69 66.14 8.69C66.23 8.69 67.13 8.71 68.05 9.09C69.47 9.67 70.24 10.81 70.24 12.28ZM76.02 5.95L76.02 13.61L77.85 13.61C78.05 13.61 78.20 13.73 78.20 13.89L78.20 15.53C78.20 15.68 78.05 15.81 77.85 15.81L71.92 15.81C71.76 15.81 71.64 15.68 71.64 15.53L71.64 13.89C71.64 13.73 71.76 13.61 71.92 13.61L73.82 13.61L73.82 5.95L71.92 5.95C71.76 5.95 71.64 5.84 71.64 5.68L71.64 4.05C71.64 3.89 71.76 3.77 71.92 3.77L77.85 3.77C78.05 3.77 78.20 3.89 78.20 4.05L78.20 5.68C78.20 5.84 78.05 5.95 77.85 5.95ZM87.81 12.28C87.81 12.38 87.79 13.22 87.26 14.07C86.77 14.88 85.76 15.83 83.71 15.83C82.08 15.83 80.81 15.15 80.12 13.93C79.80 13.34 79.67 12.77 79.63 12.40C79.63 12.38 79.62 12.35 79.62 12.32C79.62 12.18 79.73 12.05 79.87 12.04L81.59 12.04C81.70 12.05 81.79 12.12 81.82 12.24L81.82 12.25C81.82 12.26 81.83 12.28 81.83 12.29C81.86 12.46 81.93 12.70 82.07 12.91C82.36 13.40 82.91 13.65 83.71 13.65C84.56 13.65 85.11 13.41 85.40 12.94C85.60 12.61 85.62 12.26 85.62 12.26C85.62 11.87 85.53 11.41 84.80 11.12C84.27 10.89 83.71 10.88 83.71 10.88C83.61 10.88 82.71 10.86 81.79 10.50C80.37 9.93 79.60 8.81 79.60 7.34C79.60 7.20 79.63 5.89 80.65 4.87C81.38 4.13 82.42 3.75 83.71 3.75C84.53 3.75 85.72 3.93 86.63 4.86C87.51 5.75 87.74 6.89 87.79 7.45L87.79 7.48C87.79 7.64 87.68 7.77 87.53 7.77L85.83 7.77C85.72 7.76 85.62 7.66 85.60 7.55L85.60 7.50C85.55 7.31 85.48 7.03 85.34 6.75C85.15 6.40 84.77 5.94 83.71 5.94C83.02 5.94 82.52 6.09 82.19 6.41C81.82 6.79 81.79 7.34 81.79 7.34C81.79 7.73 81.89 8.18 82.61 8.47C83.15 8.68 83.71 8.69 83.71 8.69C83.80 8.69 84.70 8.71 85.62 9.09C87.04 9.67 87.81 10.81 87.81 12.28Z"></path></g><defs data-v-fde0c5aa=""><!----></defs><g data-v-fde0c5aa="" id="c445ee6a-ada7-4a53-8b2c-3102cb40fc5a" stroke="none" fill="#D1A103" transform="matrix(2.598848819732666,0,0,2.598848819732666,108.4184185296355,81.22647663635102)"><g data-name="Layer 2"><path d="M20.987 11.5a1 1 0 001 1h.31l-4.245 3.638-2.345-2.345A1 1 0 0014.4 13.7l-8.012 6a1 1 0 001.2 1.6l7.319-5.481 2.387 2.387a1 1 0 001.358.052L24 13.674v.813a1 1 0 102 0V10.5h-4.013a1 1 0 00-1 1z"></path><path d="M27 2H5a3 3 0 00-3 3v22a3 3 0 003 3h22a3 3 0 003-3V5a3 3 0 00-3-3zm1 25a1 1 0 01-1 1H5a1 1 0 01-1-1V5a1 1 0 011-1h22a1 1 0 011 1z"></path></g></g><!----></svg>